<?xml version="1.0" encoding="UTF-8"?>
<svg id="Lager_2" xmlns="http://www.w3.org/2000/svg" viewBox="0 0 131.6 124.47">
  <defs>
    <style>
      .cls-1 {
        fill: #183e4f;
      }
    </style>
  </defs>
  <g id="Lager_1-2" data-name="Lager_1">
    <g id="BankidLogo">
      <path class="cls-1" d="M41.53,64.98l5.51-34.66h-5.88c-2.75,0-6.29-1.54-7.33-4.37-.34-.96-1.13-4.26,3.41-7.46,1.62-1.13,2.67-2.38,2.87-3.34.22-.99-.04-1.87-.74-2.53-1-.96-2.96-1.51-5.46-1.51-4.21,0-7.17,2.42-7.46,4.17-.21,1.29.8,2.32,1.66,3,2.62,1.95,3.25,4.78,1.63,7.46-1.67,2.75-5.29,4.54-9.17,4.58h-6c-.5,3.38-8.67,55.12-9.29,59.2h32.54c.29-1.84,1.79-11.62,3.83-24.54h-.13,0Z"/>
      <path class="cls-1" d="M85.11,0h-33.13l-4.41,28.03h5.62c3.09,0,6-1.42,7.25-3.45.41-.67.58-1.25.58-1.8,0-1.17-.79-2.04-1.58-2.62-2.17-1.62-2.62-3.33-2.62-4.54,0-.25,0-.46.04-.67.45-2.96,4.45-6.16,9.74-6.16,3.17,0,5.59.74,7.05,2.12,1.29,1.21,1.79,2.91,1.42,4.71-.45,2.12-2.58,3.87-3.79,4.74-3.2,2.25-2.79,4.22-2.58,4.79.67,1.75,3.21,2.87,5.17,2.87h8.53v.04c11.67.08,17.92,5.46,15.96,17.96-1.84,11.62-10.76,16.62-21.38,16.71l-4.21,26.82h6.21c26.2,0,47.61-16.83,51.82-43.41C136.01,13.16,115.1,0,85.11,0Z"/>
      <path class="cls-1" d="M3.54,101.48h13.29c5.66,0,7.04,2.87,6.62,5.5-.33,2.13-1.8,3.71-4.29,4.75,3.16,1.21,4.41,3.08,3.96,6.03-.59,3.71-3.79,6.46-8.01,6.46H0l3.54-22.74h0ZM12.33,110.89c2.58,0,3.79-1.37,4.04-3,.26-1.76-.54-2.96-3.12-2.96h-2.29l-.91,5.95h2.28ZM10.91,120.73c2.67,0,4.21-1.08,4.59-3.3.29-1.91-.8-3.04-3.38-3.04h-2.62l-1,6.38h2.42v-.04Z"/>
      <path class="cls-1" d="M41.74,124.39c-3.46.25-5.13-.12-5.96-1.62-1.83,1.13-3.87,1.7-6.03,1.7-3.92,0-5.29-2.04-4.92-4.29.17-1.08.79-2.13,1.79-3,2.17-1.88,7.5-2.13,9.58-3.54.18-1.58-.45-2.16-2.41-2.16-2.29,0-4.22.74-7.5,3l.8-5.17c2.83-2.05,5.58-3,8.74-3,4.04,0,7.63,1.66,6.95,6.08l-.79,5c-.29,1.75-.21,2.29,1.75,2.34l-1.99,4.66h0ZM35.74,116.55c-1.83,1.17-5.25.96-5.62,3.38-.17,1.13.54,1.95,1.66,1.95s2.42-.45,3.5-1.21c-.08-.41-.04-.83.08-1.62l.37-2.5h0Z"/>
      <path class="cls-1" d="M48.2,106.6h6.91l-.38,2.29c2.21-1.88,3.87-2.58,6.04-2.58,3.87,0,5.66,2.37,5.04,6.24l-1.79,11.62h-6.92l1.5-9.62c.3-1.75-.25-2.58-1.58-2.58-1.08,0-2.08.58-3.04,1.87l-1.58,10.29h-6.92l2.72-17.53h0Z"/>
      <path class="cls-1" d="M71.19,101.48h6.91l-1.75,11.16,6.62-6.03h8.53l-8.49,7.49,6.83,10.08h-8.7l-5.25-8.12h-.09l-1.24,8.12h-6.92l3.54-22.7h0Z"/>
      <path class="cls-1" d="M95.69,101.48h7.96l-3.5,22.7h-7.96l3.5-22.7h0Z"/>
      <path class="cls-1" d="M107.52,101.48h11.37c8.79,0,11.34,6.38,10.5,11.67-.8,5.17-4.88,11.04-12.58,11.04h-12.83l3.54-22.7h0ZM114.89,118.77c3.87,0,6-1.91,6.62-5.95.45-3.01-.45-5.96-4.74-5.96h-2.13l-1.83,11.91h2.08Z"/>
    </g>
  </g>
</svg>